<svg width="42" height="42" viewBox="0 0 42 42" fill="none" xmlns="http://www.w3.org/2000/svg">
<path d="M14.3675 17.64C14.3325 17.64 14.2975 17.64 14.2625 17.605C13.09 16.03 12.7925 13.335 12.705 12.3025C12.705 12.11 12.4775 11.9875 12.3025 12.0925C8.6275 14.14 5.25 19.005 5.25 23.695C5.25 31.745 10.85 38.5 20.475 38.5C29.4875 38.5 35.7 31.535 35.7 23.695C35.7 13.4225 28.35 6.59748 21.8225 3.51748C21.7844 3.49654 21.7412 3.48695 21.6978 3.48982C21.6545 3.49269 21.6129 3.5079 21.5779 3.53367C21.5429 3.55943 21.5161 3.59467 21.5005 3.63522C21.4849 3.67576 21.4813 3.71992 21.49 3.76248C22.33 9.29248 21.175 15.3125 14.3675 17.64Z" fill="url(#paint0_linear_104_807)"/>
<defs>
<linearGradient id="paint0_linear_104_807" x1="8.16" y1="6.59997" x2="29.4" y2="33.6" gradientUnits="userSpaceOnUse">
<stop stop-color="#FF3863"/>
<stop offset="1" stop-color="#FF5E51"/>
</linearGradient>
</defs>
</svg>
